<mxfile host="app.diagrams.net" agent="Mozilla/5.0 (Windows NT 10.0; Win64; x64) AppleWebKit/537.36 (KHTML, like Gecko) Chrome/135.0.0.0 Safari/537.36" version="26.2.14">
  <diagram name="Page-1" id="E8HEYCNksgt99YxPQwIF">
    <mxGraphModel dx="2291" dy="1813" grid="1" gridSize="10" guides="1" tooltips="1" connect="1" arrows="1" fold="1" page="1" pageScale="1" pageWidth="827" pageHeight="1169" math="0" shadow="0">
      <root>
        <mxCell id="0" />
        <mxCell id="1" parent="0" />
        <mxCell id="qcHLwmbjx54JRJpUdq2x-46" value="" style="rounded=0;whiteSpace=wrap;html=1;" vertex="1" parent="1">
          <mxGeometry x="-30" y="40" width="830" height="480" as="geometry" />
        </mxCell>
        <mxCell id="qcHLwmbjx54JRJpUdq2x-1" value="User" style="shape=umlActor;verticalLabelPosition=bottom;verticalAlign=top;html=1;outlineConnect=0;" vertex="1" parent="1">
          <mxGeometry x="-90" y="125" width="30" height="60" as="geometry" />
        </mxCell>
        <mxCell id="qcHLwmbjx54JRJpUdq2x-2" value="" style="ellipse;whiteSpace=wrap;html=1;" vertex="1" parent="1">
          <mxGeometry x="50" y="125" width="120" height="80" as="geometry" />
        </mxCell>
        <mxCell id="qcHLwmbjx54JRJpUdq2x-3" value="Start Device" style="text;html=1;align=center;verticalAlign=middle;whiteSpace=wrap;rounded=0;" vertex="1" parent="1">
          <mxGeometry x="65" y="150" width="90" height="30" as="geometry" />
        </mxCell>
        <mxCell id="qcHLwmbjx54JRJpUdq2x-4" value="" style="ellipse;whiteSpace=wrap;html=1;" vertex="1" parent="1">
          <mxGeometry x="250" y="255" width="120" height="80" as="geometry" />
        </mxCell>
        <mxCell id="qcHLwmbjx54JRJpUdq2x-5" value="Press Button 1" style="text;html=1;align=center;verticalAlign=middle;whiteSpace=wrap;rounded=0;" vertex="1" parent="1">
          <mxGeometry x="265" y="280" width="90" height="30" as="geometry" />
        </mxCell>
        <mxCell id="qcHLwmbjx54JRJpUdq2x-6" value="" style="ellipse;whiteSpace=wrap;html=1;" vertex="1" parent="1">
          <mxGeometry x="430" y="60" width="120" height="80" as="geometry" />
        </mxCell>
        <mxCell id="qcHLwmbjx54JRJpUdq2x-7" value="Press Button 3" style="text;html=1;align=center;verticalAlign=middle;whiteSpace=wrap;rounded=0;" vertex="1" parent="1">
          <mxGeometry x="445" y="85" width="90" height="30" as="geometry" />
        </mxCell>
        <mxCell id="qcHLwmbjx54JRJpUdq2x-8" value="" style="ellipse;whiteSpace=wrap;html=1;" vertex="1" parent="1">
          <mxGeometry x="440" y="200" width="120" height="80" as="geometry" />
        </mxCell>
        <mxCell id="qcHLwmbjx54JRJpUdq2x-9" value="Press Button 2" style="text;html=1;align=center;verticalAlign=middle;whiteSpace=wrap;rounded=0;" vertex="1" parent="1">
          <mxGeometry x="455" y="225" width="90" height="30" as="geometry" />
        </mxCell>
        <mxCell id="qcHLwmbjx54JRJpUdq2x-10" value="" style="ellipse;whiteSpace=wrap;html=1;" vertex="1" parent="1">
          <mxGeometry x="255" y="385" width="120" height="80" as="geometry" />
        </mxCell>
        <mxCell id="qcHLwmbjx54JRJpUdq2x-11" value="View HR/ BP/ SpO2 readings" style="text;html=1;align=center;verticalAlign=middle;whiteSpace=wrap;rounded=0;" vertex="1" parent="1">
          <mxGeometry x="250" y="410" width="130" height="30" as="geometry" />
        </mxCell>
        <mxCell id="qcHLwmbjx54JRJpUdq2x-12" value="" style="ellipse;whiteSpace=wrap;html=1;" vertex="1" parent="1">
          <mxGeometry x="605" y="295" width="120" height="80" as="geometry" />
        </mxCell>
        <mxCell id="qcHLwmbjx54JRJpUdq2x-13" value="View ECG reading" style="text;html=1;align=center;verticalAlign=middle;whiteSpace=wrap;rounded=0;" vertex="1" parent="1">
          <mxGeometry x="600" y="320" width="130" height="30" as="geometry" />
        </mxCell>
        <mxCell id="qcHLwmbjx54JRJpUdq2x-14" value="" style="ellipse;whiteSpace=wrap;html=1;" vertex="1" parent="1">
          <mxGeometry x="630" y="60" width="120" height="80" as="geometry" />
        </mxCell>
        <mxCell id="qcHLwmbjx54JRJpUdq2x-15" value="View Temperature reading" style="text;html=1;align=center;verticalAlign=middle;whiteSpace=wrap;rounded=0;" vertex="1" parent="1">
          <mxGeometry x="620" y="85" width="130" height="30" as="geometry" />
        </mxCell>
        <mxCell id="qcHLwmbjx54JRJpUdq2x-16" value="" style="ellipse;whiteSpace=wrap;html=1;" vertex="1" parent="1">
          <mxGeometry x="250" y="125" width="120" height="80" as="geometry" />
        </mxCell>
        <mxCell id="qcHLwmbjx54JRJpUdq2x-17" value="Connect to Wi-Fi" style="text;html=1;align=center;verticalAlign=middle;whiteSpace=wrap;rounded=0;" vertex="1" parent="1">
          <mxGeometry x="255" y="150" width="105" height="30" as="geometry" />
        </mxCell>
        <mxCell id="qcHLwmbjx54JRJpUdq2x-20" value="" style="ellipse;whiteSpace=wrap;html=1;" vertex="1" parent="1">
          <mxGeometry x="50" y="265" width="120" height="80" as="geometry" />
        </mxCell>
        <mxCell id="qcHLwmbjx54JRJpUdq2x-21" value="Charge Device" style="text;html=1;align=center;verticalAlign=middle;whiteSpace=wrap;rounded=0;" vertex="1" parent="1">
          <mxGeometry x="65" y="290" width="90" height="30" as="geometry" />
        </mxCell>
        <mxCell id="qcHLwmbjx54JRJpUdq2x-22" value="" style="endArrow=none;html=1;rounded=0;" edge="1" parent="1">
          <mxGeometry width="50" height="50" relative="1" as="geometry">
            <mxPoint x="-40" y="160" as="sourcePoint" />
            <mxPoint x="50" y="160" as="targetPoint" />
          </mxGeometry>
        </mxCell>
        <mxCell id="qcHLwmbjx54JRJpUdq2x-23" value="" style="endArrow=none;html=1;rounded=0;entryX=0.32;entryY=0.026;entryDx=0;entryDy=0;entryPerimeter=0;" edge="1" parent="1" target="qcHLwmbjx54JRJpUdq2x-20">
          <mxGeometry width="50" height="50" relative="1" as="geometry">
            <mxPoint x="-40" y="190" as="sourcePoint" />
            <mxPoint x="60" y="170" as="targetPoint" />
          </mxGeometry>
        </mxCell>
        <mxCell id="qcHLwmbjx54JRJpUdq2x-24" value="" style="endArrow=classic;html=1;rounded=0;entryX=0.469;entryY=0.985;entryDx=0;entryDy=0;exitX=0.443;exitY=0.008;exitDx=0;exitDy=0;exitPerimeter=0;entryPerimeter=0;" edge="1" parent="1" source="qcHLwmbjx54JRJpUdq2x-10" target="qcHLwmbjx54JRJpUdq2x-4">
          <mxGeometry width="50" height="50" relative="1" as="geometry">
            <mxPoint x="310" y="380" as="sourcePoint" />
            <mxPoint x="320" y="330" as="targetPoint" />
          </mxGeometry>
        </mxCell>
        <mxCell id="qcHLwmbjx54JRJpUdq2x-25" value="" style="endArrow=classic;html=1;rounded=0;exitX=0.424;exitY=-0.019;exitDx=0;exitDy=0;exitPerimeter=0;entryX=0.964;entryY=0.681;entryDx=0;entryDy=0;entryPerimeter=0;" edge="1" parent="1" source="qcHLwmbjx54JRJpUdq2x-12" target="qcHLwmbjx54JRJpUdq2x-8">
          <mxGeometry width="50" height="50" relative="1" as="geometry">
            <mxPoint x="552" y="307" as="sourcePoint" />
            <mxPoint x="560" y="255" as="targetPoint" />
          </mxGeometry>
        </mxCell>
        <mxCell id="qcHLwmbjx54JRJpUdq2x-26" value="" style="endArrow=classic;html=1;rounded=0;exitX=0;exitY=0.5;exitDx=0;exitDy=0;entryX=0.964;entryY=0.681;entryDx=0;entryDy=0;entryPerimeter=0;" edge="1" parent="1" source="qcHLwmbjx54JRJpUdq2x-14">
          <mxGeometry width="50" height="50" relative="1" as="geometry">
            <mxPoint x="650" y="140" as="sourcePoint" />
            <mxPoint x="550" y="101" as="targetPoint" />
          </mxGeometry>
        </mxCell>
        <mxCell id="qcHLwmbjx54JRJpUdq2x-27" value="" style="endArrow=classic;html=1;rounded=0;entryX=0.469;entryY=0.985;entryDx=0;entryDy=0;exitX=0.5;exitY=0;exitDx=0;exitDy=0;entryPerimeter=0;" edge="1" parent="1" source="qcHLwmbjx54JRJpUdq2x-4">
          <mxGeometry width="50" height="50" relative="1" as="geometry">
            <mxPoint x="312" y="257" as="sourcePoint" />
            <mxPoint x="310" y="205" as="targetPoint" />
          </mxGeometry>
        </mxCell>
        <mxCell id="qcHLwmbjx54JRJpUdq2x-28" value="" style="endArrow=classic;html=1;rounded=0;entryX=0.964;entryY=0.681;entryDx=0;entryDy=0;entryPerimeter=0;" edge="1" parent="1">
          <mxGeometry width="50" height="50" relative="1" as="geometry">
            <mxPoint x="450" y="220" as="sourcePoint" />
            <mxPoint x="364" y="180" as="targetPoint" />
          </mxGeometry>
        </mxCell>
        <mxCell id="qcHLwmbjx54JRJpUdq2x-29" value="" style="endArrow=classic;html=1;rounded=0;exitX=0;exitY=0.5;exitDx=0;exitDy=0;" edge="1" parent="1" source="qcHLwmbjx54JRJpUdq2x-6">
          <mxGeometry width="50" height="50" relative="1" as="geometry">
            <mxPoint x="380" y="125" as="sourcePoint" />
            <mxPoint x="340" y="130" as="targetPoint" />
          </mxGeometry>
        </mxCell>
        <mxCell id="qcHLwmbjx54JRJpUdq2x-30" value="" style="endArrow=classic;html=1;rounded=0;entryX=1;entryY=0.5;entryDx=0;entryDy=0;" edge="1" parent="1" target="qcHLwmbjx54JRJpUdq2x-2">
          <mxGeometry width="50" height="50" relative="1" as="geometry">
            <mxPoint x="250" y="165" as="sourcePoint" />
            <mxPoint x="180" y="160" as="targetPoint" />
          </mxGeometry>
        </mxCell>
        <mxCell id="qcHLwmbjx54JRJpUdq2x-31" value="&lt;font style=&quot;font-size: 10px;&quot;&gt;&amp;lt;&amp;lt;extend&amp;gt;&amp;gt;&lt;/font&gt;" style="text;html=1;align=center;verticalAlign=middle;whiteSpace=wrap;rounded=0;rotation=32;" vertex="1" parent="1">
          <mxGeometry x="-10" y="220" width="60" height="30" as="geometry" />
        </mxCell>
        <mxCell id="qcHLwmbjx54JRJpUdq2x-32" value="&lt;font style=&quot;font-size: 10px;&quot;&gt;&amp;lt;&amp;lt;include&amp;gt;&amp;gt;&lt;/font&gt;" style="text;html=1;align=center;verticalAlign=middle;whiteSpace=wrap;rounded=0;rotation=0;" vertex="1" parent="1">
          <mxGeometry x="-20" y="140" width="60" height="30" as="geometry" />
        </mxCell>
        <mxCell id="qcHLwmbjx54JRJpUdq2x-34" value="&lt;font style=&quot;font-size: 10px;&quot;&gt;&amp;lt;&amp;lt;include&amp;gt;&amp;gt;&lt;/font&gt;" style="text;html=1;align=center;verticalAlign=middle;whiteSpace=wrap;rounded=0;rotation=0;" vertex="1" parent="1">
          <mxGeometry x="180" y="140" width="60" height="30" as="geometry" />
        </mxCell>
        <mxCell id="qcHLwmbjx54JRJpUdq2x-36" value="&lt;font style=&quot;font-size: 10px;&quot;&gt;&amp;lt;&amp;lt;include&amp;gt;&amp;gt;&lt;/font&gt;" style="text;html=1;align=center;verticalAlign=middle;whiteSpace=wrap;rounded=0;rotation=0;" vertex="1" parent="1">
          <mxGeometry x="305" y="220" width="60" height="30" as="geometry" />
        </mxCell>
        <mxCell id="qcHLwmbjx54JRJpUdq2x-39" value="&lt;font style=&quot;font-size: 10px;&quot;&gt;&amp;lt;&amp;lt;include&amp;gt;&amp;gt;&lt;/font&gt;" style="text;html=1;align=center;verticalAlign=middle;whiteSpace=wrap;rounded=0;rotation=-15;" vertex="1" parent="1">
          <mxGeometry x="365" y="105" width="60" height="30" as="geometry" />
        </mxCell>
        <mxCell id="qcHLwmbjx54JRJpUdq2x-40" value="&lt;font style=&quot;font-size: 10px;&quot;&gt;&amp;lt;&amp;lt;include&amp;gt;&amp;gt;&lt;/font&gt;" style="text;html=1;align=center;verticalAlign=middle;whiteSpace=wrap;rounded=0;rotation=0;" vertex="1" parent="1">
          <mxGeometry x="305" y="350" width="60" height="30" as="geometry" />
        </mxCell>
        <mxCell id="qcHLwmbjx54JRJpUdq2x-41" value="&lt;font style=&quot;font-size: 10px;&quot;&gt;&amp;lt;&amp;lt;include&amp;gt;&amp;gt;&lt;/font&gt;" style="text;html=1;align=center;verticalAlign=middle;whiteSpace=wrap;rounded=0;rotation=30;" vertex="1" parent="1">
          <mxGeometry x="385" y="180" width="60" height="30" as="geometry" />
        </mxCell>
        <mxCell id="qcHLwmbjx54JRJpUdq2x-43" value="&lt;font style=&quot;font-size: 10px;&quot;&gt;&amp;lt;&amp;lt;include&amp;gt;&amp;gt;&lt;/font&gt;" style="text;html=1;align=center;verticalAlign=middle;whiteSpace=wrap;rounded=0;rotation=15;" vertex="1" parent="1">
          <mxGeometry x="580" y="250" width="60" height="30" as="geometry" />
        </mxCell>
        <mxCell id="qcHLwmbjx54JRJpUdq2x-45" value="&lt;font style=&quot;font-size: 10px;&quot;&gt;&amp;lt;&amp;lt;include&amp;gt;&amp;gt;&lt;/font&gt;" style="text;html=1;align=center;verticalAlign=middle;whiteSpace=wrap;rounded=0;rotation=0;" vertex="1" parent="1">
          <mxGeometry x="560" y="95" width="60" height="30" as="geometry" />
        </mxCell>
        <mxCell id="qcHLwmbjx54JRJpUdq2x-47" value="&lt;b&gt;&lt;font style=&quot;font-size: 14px;&quot;&gt;USER - USE CASE DIAGRAM FOR SYSTEM&lt;/font&gt;&lt;/b&gt;" style="text;html=1;align=center;verticalAlign=middle;whiteSpace=wrap;rounded=0;" vertex="1" parent="1">
          <mxGeometry x="254" width="320" height="30" as="geometry" />
        </mxCell>
        <mxCell id="qcHLwmbjx54JRJpUdq2x-48" value="" style="ellipse;whiteSpace=wrap;html=1;" vertex="1" parent="1">
          <mxGeometry x="260" y="-300" width="120" height="80" as="geometry" />
        </mxCell>
      </root>
    </mxGraphModel>
  </diagram>
</mxfile>
